<mxfile host="app.diagrams.net" modified="2022-10-20T05:39:04.948Z" agent="5.0 (Macintosh; Intel Mac OS X 10_15_7) AppleWebKit/537.36 (KHTML, like Gecko) Chrome/106.0.0.0 Safari/537.36" etag="zPC_DfYzEEK6z5IwTh3Q" version="20.4.2" type="github">
  <diagram id="MqSlupV09XDeWsoctVPR" name="第 1 页">
    <mxGraphModel dx="1426" dy="794" grid="1" gridSize="10" guides="1" tooltips="1" connect="1" arrows="1" fold="1" page="1" pageScale="1" pageWidth="3300" pageHeight="4681" math="0" shadow="0">
      <root>
        <mxCell id="0" />
        <mxCell id="1" parent="0" />
        <mxCell id="TW5Gy77DwIipH52Wo86Y-6" value="" style="rounded=0;whiteSpace=wrap;html=1;" vertex="1" parent="1">
          <mxGeometry x="530" y="277" width="390" height="230" as="geometry" />
        </mxCell>
        <mxCell id="TW5Gy77DwIipH52Wo86Y-8" style="edgeStyle=orthogonalEdgeStyle;rounded=0;orthogonalLoop=1;jettySize=auto;html=1;exitX=0.5;exitY=1;exitDx=0;exitDy=0;entryX=0.5;entryY=0;entryDx=0;entryDy=0;" edge="1" parent="1" target="TW5Gy77DwIipH52Wo86Y-6">
          <mxGeometry relative="1" as="geometry">
            <mxPoint x="725.0050000000001" y="219" as="sourcePoint" />
          </mxGeometry>
        </mxCell>
        <mxCell id="TW5Gy77DwIipH52Wo86Y-9" value="编译代码" style="text;html=1;align=center;verticalAlign=middle;resizable=0;points=[];autosize=1;strokeColor=none;fillColor=none;" vertex="1" parent="1">
          <mxGeometry x="720" y="230" width="70" height="30" as="geometry" />
        </mxCell>
        <mxCell id="TW5Gy77DwIipH52Wo86Y-10" value="" style="rounded=0;whiteSpace=wrap;html=1;fillColor=#f8cecc;strokeColor=#b85450;" vertex="1" parent="1">
          <mxGeometry x="540" y="290" width="370" height="110" as="geometry" />
        </mxCell>
        <mxCell id="TW5Gy77DwIipH52Wo86Y-11" value="&lt;font color=&quot;#00994d&quot;&gt;执行上下文&lt;/font&gt;" style="text;html=1;align=center;verticalAlign=middle;resizable=0;points=[];autosize=1;strokeColor=none;fillColor=none;" vertex="1" parent="1">
          <mxGeometry x="685" y="290" width="80" height="30" as="geometry" />
        </mxCell>
        <mxCell id="TW5Gy77DwIipH52Wo86Y-19" value="showName()&lt;br&gt;console.log(myname)&lt;br&gt;&lt;font color=&quot;#9933ff&quot;&gt;var&lt;/font&gt; &lt;font color=&quot;#007fff&quot;&gt;myname&lt;/font&gt; = &lt;font color=&quot;#ff0818&quot;&gt;&#39;小彬&lt;/font&gt;&#39;&lt;br&gt;&lt;font color=&quot;#9933ff&quot;&gt;function&lt;/font&gt; &lt;font color=&quot;#007fff&quot;&gt;showName&lt;/font&gt;(){&lt;br&gt;&lt;span style=&quot;white-space: pre;&quot;&gt;	&lt;/span&gt;console.log(&lt;font color=&quot;#ff0818&quot;&gt;&#39;执行&lt;/font&gt;&#39;)&lt;br&gt;}" style="rounded=0;whiteSpace=wrap;html=1;align=left;spacingLeft=12;fillColor=#f5f5f5;strokeColor=#666666;fontColor=#333333;" vertex="1" parent="1">
          <mxGeometry x="612.5" y="120" width="225" height="100" as="geometry" />
        </mxCell>
        <mxCell id="TW5Gy77DwIipH52Wo86Y-27" style="edgeStyle=orthogonalEdgeStyle;rounded=0;orthogonalLoop=1;jettySize=auto;html=1;exitX=0.5;exitY=1;exitDx=0;exitDy=0;fontColor=#000000;" edge="1" parent="1" source="TW5Gy77DwIipH52Wo86Y-21" target="TW5Gy77DwIipH52Wo86Y-26">
          <mxGeometry relative="1" as="geometry" />
        </mxCell>
        <mxCell id="TW5Gy77DwIipH52Wo86Y-21" value="showName()&lt;br&gt;console.log(myname)&lt;br&gt;&lt;font color=&quot;#007fff&quot;&gt;myname&lt;/font&gt; = &lt;font color=&quot;#ff0818&quot;&gt;&#39;小彬&lt;/font&gt;&#39;&lt;br&gt;" style="rounded=0;whiteSpace=wrap;html=1;align=left;spacingLeft=12;fillColor=#dae8fc;strokeColor=#6c8ebf;" vertex="1" parent="1">
          <mxGeometry x="540" y="420" width="370" height="80" as="geometry" />
        </mxCell>
        <mxCell id="TW5Gy77DwIipH52Wo86Y-17" value="&lt;font color=&quot;#00994d&quot;&gt;可执行代码&lt;/font&gt;" style="text;html=1;align=center;verticalAlign=middle;resizable=0;points=[];autosize=1;strokeColor=none;fillColor=none;" vertex="1" parent="1">
          <mxGeometry x="830" y="420" width="80" height="30" as="geometry" />
        </mxCell>
        <mxCell id="TW5Gy77DwIipH52Wo86Y-20" value="&lt;p style=&quot;line-height: 1.2;&quot;&gt;&lt;/p&gt;&lt;div style=&quot;&quot;&gt;&lt;br&gt;&lt;/div&gt;&lt;font color=&quot;#9933ff&quot;&gt;&lt;div style=&quot;&quot;&gt;&lt;font style=&quot;background-color: initial;&quot; color=&quot;#9933ff&quot;&gt;var&lt;/font&gt;&lt;span style=&quot;background-color: initial; color: rgb(0, 0, 0);&quot;&gt; &lt;/span&gt;&lt;font style=&quot;background-color: initial;&quot; color=&quot;#007fff&quot;&gt;myname&lt;/font&gt;&lt;span style=&quot;background-color: initial; color: rgb(0, 0, 0);&quot;&gt; = &lt;/span&gt;&lt;font style=&quot;background-color: initial;&quot; color=&quot;#ff0818&quot;&gt;undefined&lt;/font&gt;&lt;/div&gt;&lt;/font&gt;&lt;font color=&quot;#9933ff&quot;&gt;&lt;div style=&quot;&quot;&gt;&lt;font style=&quot;background-color: initial;&quot; color=&quot;#9933ff&quot;&gt;function&lt;/font&gt;&lt;span style=&quot;background-color: initial; color: rgb(0, 0, 0);&quot;&gt; &lt;/span&gt;&lt;font style=&quot;background-color: initial;&quot; color=&quot;#007fff&quot;&gt;showName&lt;/font&gt;&lt;span style=&quot;background-color: initial; color: rgb(0, 0, 0);&quot;&gt;(){&lt;/span&gt;&lt;/div&gt;&lt;/font&gt;&lt;span style=&quot;white-space: pre;&quot;&gt;&lt;div style=&quot;&quot;&gt;&lt;span style=&quot;background-color: initial;&quot;&gt;	&lt;/span&gt;&lt;span style=&quot;background-color: initial; white-space: normal;&quot;&gt;console.log(&lt;/span&gt;&lt;font style=&quot;background-color: initial; white-space: normal;&quot; color=&quot;#ff0818&quot;&gt;&#39;执行&lt;/font&gt;&lt;span style=&quot;background-color: initial; white-space: normal;&quot;&gt;&#39;)&lt;/span&gt;&lt;/div&gt;&lt;/span&gt;&lt;div style=&quot;&quot;&gt;&lt;span style=&quot;background-color: initial;&quot;&gt;}&lt;/span&gt;&lt;/div&gt;&lt;p&gt;&lt;/p&gt;" style="rounded=0;whiteSpace=wrap;html=1;align=left;fillColor=#dae8fc;strokeColor=#6c8ebf;spacingBottom=11;spacingLeft=7;" vertex="1" parent="1">
          <mxGeometry x="550" y="320" width="270" height="70" as="geometry" />
        </mxCell>
        <mxCell id="TW5Gy77DwIipH52Wo86Y-24" value="&lt;font color=&quot;#00994d&quot;&gt;变量环境&lt;/font&gt;" style="text;html=1;align=center;verticalAlign=middle;resizable=0;points=[];autosize=1;strokeColor=none;fillColor=none;fontColor=#FF0818;" vertex="1" parent="1">
          <mxGeometry x="750" y="320" width="70" height="30" as="geometry" />
        </mxCell>
        <mxCell id="TW5Gy77DwIipH52Wo86Y-25" value="&lt;font color=&quot;#00994d&quot;&gt;js代码&lt;/font&gt;" style="text;html=1;align=center;verticalAlign=middle;resizable=0;points=[];autosize=1;strokeColor=none;fillColor=none;fontColor=#FF0818;" vertex="1" parent="1">
          <mxGeometry x="777.5" y="120" width="60" height="30" as="geometry" />
        </mxCell>
        <mxCell id="TW5Gy77DwIipH52Wo86Y-26" value="输出结果" style="rounded=0;whiteSpace=wrap;html=1;fontColor=#333333;fillColor=#f5f5f5;strokeColor=#666666;" vertex="1" parent="1">
          <mxGeometry x="665" y="540" width="120" height="60" as="geometry" />
        </mxCell>
        <mxCell id="TW5Gy77DwIipH52Wo86Y-28" value="执行代码" style="text;html=1;align=center;verticalAlign=middle;resizable=0;points=[];autosize=1;strokeColor=none;fillColor=none;fontColor=#000000;" vertex="1" parent="1">
          <mxGeometry x="730" y="507" width="70" height="30" as="geometry" />
        </mxCell>
      </root>
    </mxGraphModel>
  </diagram>
</mxfile>
